<?xml version="1.0" encoding="utf-8"?>
<!-- Generator: Adobe Illustrator 22.1.0, SVG Export Plug-In . SVG Version: 6.00 Build 0)  -->
<svg version="1.1" xmlns="http://www.w3.org/2000/svg" xmlns:xlink="http://www.w3.org/1999/xlink" x="0px" y="0px"
	 viewBox="0 0 4500 3240" style="enable-background:new 0 0 4500 3240;" xml:space="preserve">
<style type="text/css">
	.st0{display:none;}
	.st1{display:inline;fill:#ED1C24;}
	.st2{display:inline;}
	.st3{fill:#FFFFFF;}
	.st4{fill:#FFFFFF;stroke:#000000;stroke-miterlimit:10;}
	.st5{stroke:#000000;stroke-miterlimit:10;}
	.st6{display:inline;fill:#F15A24;}
	.st7{display:none;fill:#FFFFFF;stroke:#000000;stroke-miterlimit:10;}
	.st8{display:inline;fill:#F7931E;}
	.st9{fill:#FCEE21;}
	.st10{fill:#D9E021;}
	.st11{fill:#8CC63F;}
	.st12{fill:#39B54A;}
	.st13{fill:#009245;}
	.st14{fill:#006837;}
	.st15{fill:#29ABE2;}
	.st16{fill:#0071BC;}
	.st17{fill:none;}
	.st18{display:inline;fill:#FFFFFF;}
	.st19{fill:none;stroke:#000000;stroke-miterlimit:10;}
	.st20{display:inline;fill:none;stroke:#000000;stroke-miterlimit:10;}
	.st21{display:inline;fill:#FFFFFF;stroke:#000000;stroke-miterlimit:10;}
	.st22{display:inline;stroke:#000000;stroke-miterlimit:10;}
</style>
<g id="sprite">
	<g class="st0">
		<rect x="750.5" y="0.5" class="st1" width="749" height="1079"/>
		<path class="st2" d="M1499,1v1078H751V1H1499 M1500,0H750v1080h750V0L1500,0z"/>
	</g>
	<g>
		<path class="st3" d="M1191.3,555.9c-16.3,0-33.2-1.1-50.2-3.3c-44.8-5.8-86-18.7-115.9-36.1c-29.8-17.4-44.9-37.2-42.4-55.9
			c2-15.2,15.3-28.2,38.6-37.5c22.6-9.1,53.8-14.1,87.8-14.1c16.3,0,33.2,1.1,50.2,3.3c92.3,12,163.4,53.3,158.3,92
			c-2,15.2-15.3,28.2-38.6,37.5C1256.5,550.9,1225.3,555.9,1191.3,555.9z"/>
		<path d="M1109.2,408.5v1c16.3,0,33.2,1.1,50.1,3.3c92.1,12,162.9,53,157.9,91.4c-2,15-15.2,27.8-38.3,37.1
			c-22.6,9.1-53.7,14.1-87.7,14.1c-16.3,0-33.2-1.1-50.1-3.3c-92.1-12-162.9-53-157.9-91.4c2-15,15.2-27.8,38.3-37.1
			c22.6-9.1,53.7-14.1,87.7-14.1V408.5 M1109.2,408.5c-69.6,0-122.8,20.4-126.9,52.1c-5.1,39,66,80.5,158.8,92.6
			c17.3,2.3,34.2,3.3,50.2,3.3c69.6,0,122.8-20.4,126.9-52.1c5.1-39-66-80.5-158.8-92.6C1142.1,409.5,1125.2,408.5,1109.2,408.5
			L1109.2,408.5z"/>
	</g>
	<polygon class="st4" points="1018.5,376.5 985.5,376.5 985.5,337.5 	"/>
	<polygon class="st4" points="1054.5,379.5 1087.5,379.5 1087.5,340.5 	"/>
	<g>
		<path class="st3" d="M1008.8,473.5c-25.5,0-46.3-20.7-46.3-46.3v-24.5c0-25.5,20.7-46.3,46.3-46.3h46.5
			c25.5,0,46.3,20.7,46.3,46.3v24.5c0,25.5-20.7,46.3-46.3,46.3H1008.8z"/>
		<path d="M1055.2,357c25.2,0,45.8,20.5,45.8,45.8v24.5c0,25.2-20.5,45.8-45.8,45.8h-46.5c-25.2,0-45.8-20.5-45.8-45.8v-24.5
			c0-25.2,20.5-45.8,45.8-45.8H1055.2 M1055.2,356h-46.5c-25.7,0-46.8,21-46.8,46.8v24.5c0,25.7,21,46.8,46.8,46.8h46.5
			c25.7,0,46.8-21,46.8-46.8v-24.5C1102,377,1081,356,1055.2,356L1055.2,356z"/>
	</g>
	<g>
		<circle class="st3" cx="977.5" cy="408.5" r="26"/>
		<path d="M977.5,383c14.1,0,25.5,11.4,25.5,25.5S991.6,434,977.5,434S952,422.6,952,408.5S963.4,383,977.5,383 M977.5,382
			c-14.6,0-26.5,11.9-26.5,26.5s11.9,26.5,26.5,26.5s26.5-11.9,26.5-26.5S992.1,382,977.5,382L977.5,382z"/>
	</g>
	<g>
		<circle class="st3" cx="1055.5" cy="410.5" r="26"/>
		<path d="M1055.5,385c14.1,0,25.5,11.4,25.5,25.5s-11.4,25.5-25.5,25.5s-25.5-11.4-25.5-25.5S1041.4,385,1055.5,385 M1055.5,384
			c-14.6,0-26.5,11.9-26.5,26.5s11.9,26.5,26.5,26.5s26.5-11.9,26.5-26.5S1070.1,384,1055.5,384L1055.5,384z"/>
	</g>
	<polygon class="st4" points="1000.5,430.5 1018.5,459.5 1030.5,430.5 	"/>
	<circle class="st4" cx="974.5" cy="408.5" r="12"/>
	<circle class="st4" cx="1055.5" cy="410.5" r="12"/>
	<path class="st4" d="M1218.2,540.5c-4.2-60.1-30.4-95.5-66.4-93c-36,2.5-53.4,30.5-49.2,90.6c4.2,60.1,23.9,102.7,59.9,100.1
		c21.5-1.5,31.6-24.1,41.1-47.2C1210,575.4,1219.9,564.7,1218.2,540.5z"/>
	<circle class="st5" cx="1054" cy="409" r="4.5"/>
	<circle class="st5" cx="973" cy="408" r="4.5"/>
	<g class="st0">
		<rect x="1500.5" y="0.5" class="st6" width="749" height="1079"/>
		<path class="st2" d="M2249,1v1078h-748V1H2249 M2250,0h-750v1080h750V0L2250,0z"/>
	</g>
	<g>
		<path class="st3" d="M1941.3,555.9c-16.3,0-33.2-1.1-50.2-3.3c-44.8-5.8-86-18.7-115.9-36.1c-29.8-17.4-44.9-37.2-42.4-55.9
			c2-15.2,15.3-28.2,38.6-37.5c22.6-9.1,53.8-14.1,87.8-14.1c16.3,0,33.2,1.1,50.2,3.3c92.3,12,163.4,53.3,158.3,92
			c-2,15.2-15.3,28.2-38.6,37.5C2006.5,550.9,1975.3,555.9,1941.3,555.9z"/>
		<path d="M1859.2,408.5v1c16.3,0,33.2,1.1,50.1,3.3c92.1,12,162.9,53,157.9,91.4c-2,15-15.2,27.8-38.3,37.1
			c-22.6,9.1-53.7,14.1-87.7,14.1c-16.3,0-33.2-1.1-50.1-3.3c-92.1-12-162.9-53-157.9-91.4c2-15,15.2-27.8,38.3-37.1
			c22.6-9.1,53.7-14.1,87.7-14.1V408.5 M1859.2,408.5c-69.6,0-122.8,20.4-126.9,52.1c-5.1,39,66,80.5,158.8,92.6
			c17.3,2.3,34.2,3.3,50.2,3.3c69.6,0,122.8-20.4,126.9-52.1c5.1-39-66-80.5-158.8-92.6C1892.1,409.5,1875.2,408.5,1859.2,408.5
			L1859.2,408.5z"/>
	</g>
	<polygon class="st4" points="1768.5,376.5 1735.5,376.5 1735.5,337.5 	"/>
	<polygon class="st4" points="1804.5,379.5 1837.5,379.5 1837.5,340.5 	"/>
	<g>
		<path class="st3" d="M1758.8,473.5c-25.5,0-46.3-20.7-46.3-46.3v-24.5c0-25.5,20.7-46.3,46.3-46.3h46.5
			c25.5,0,46.3,20.7,46.3,46.3v24.5c0,25.5-20.7,46.3-46.3,46.3H1758.8z"/>
		<path d="M1805.2,357c25.2,0,45.8,20.5,45.8,45.8v24.5c0,25.2-20.5,45.8-45.8,45.8h-46.5c-25.2,0-45.8-20.5-45.8-45.8v-24.5
			c0-25.2,20.5-45.8,45.8-45.8H1805.2 M1805.2,356h-46.5c-25.7,0-46.8,21-46.8,46.8v24.5c0,25.7,21,46.8,46.8,46.8h46.5
			c25.7,0,46.8-21,46.8-46.8v-24.5C1852,377,1831,356,1805.2,356L1805.2,356z"/>
	</g>
	<g>
		<circle class="st3" cx="1727.5" cy="408.5" r="26"/>
		<path d="M1727.5,383c14.1,0,25.5,11.4,25.5,25.5s-11.4,25.5-25.5,25.5s-25.5-11.4-25.5-25.5S1713.4,383,1727.5,383 M1727.5,382
			c-14.6,0-26.5,11.9-26.5,26.5s11.9,26.5,26.5,26.5s26.5-11.9,26.5-26.5S1742.1,382,1727.5,382L1727.5,382z"/>
	</g>
	<g>
		<circle class="st3" cx="1805.5" cy="410.5" r="26"/>
		<path d="M1805.5,385c14.1,0,25.5,11.4,25.5,25.5s-11.4,25.5-25.5,25.5s-25.5-11.4-25.5-25.5S1791.4,385,1805.5,385 M1805.5,384
			c-14.6,0-26.5,11.9-26.5,26.5s11.9,26.5,26.5,26.5s26.5-11.9,26.5-26.5S1820.1,384,1805.5,384L1805.5,384z"/>
	</g>
	<polygon class="st4" points="1750.5,430.5 1768.5,459.5 1780.5,430.5 	"/>
	<circle class="st4" cx="1724.5" cy="408.5" r="12"/>
	<circle class="st4" cx="1805.5" cy="410.5" r="12"/>
	<path class="st7" d="M1968.2,540.5c-4.2-60.1-30.4-95.5-66.4-93c-36,2.5-53.4,30.5-49.2,90.6c4.2,60.1,23.9,102.7,59.9,100.1
		c21.5-1.5,31.6-24.1,41.1-47.2C1960,575.4,1969.9,564.7,1968.2,540.5z"/>
	<circle class="st5" cx="1804" cy="409" r="4.5"/>
	<circle class="st5" cx="1723" cy="408" r="4.5"/>
	<g class="st0">
		<rect x="2250.5" y="0.5" class="st8" width="749" height="1079"/>
		<path class="st2" d="M2999,1v1078h-748V1H2999 M3000,0h-750v1080h750V0L3000,0z"/>
	</g>
	<g>
		<path class="st3" d="M2691.5,555.5c-16.4,0-33.3-1.1-50.3-3.3c-92.3-12-163.4-53.2-158.4-91.8c2-15.1,15.3-28.1,38.5-37.4
			c22.6-9.1,53.7-14,87.7-14c16.4,0,33.3,1.1,50.3,3.3c44.8,5.8,86,18.6,115.9,36.1c29.8,17.3,44.9,37.1,42.5,55.7
			c-2,15.1-15.3,28.1-38.5,37.4C2756.6,550.5,2725.5,555.5,2691.5,555.5z"/>
		<path d="M2609.1,409.4c16.3,0,33.3,1.1,50.3,3.3c92.1,12,162.9,52.9,157.9,91.2c-1.9,14.9-15.2,27.7-38.2,37
			c-22.5,9-53.6,14-87.5,14c-16.3,0-33.3-1.1-50.3-3.3c-92.1-12-162.9-52.9-157.9-91.2c1.9-14.9,15.2-27.7,38.2-37
			C2544.1,414.4,2575.2,409.4,2609.1,409.4L2609.1,409.4 M2609.1,408.4c-69.5,0-122.6,20.3-126.8,51.8c-5.1,38.9,66,80.2,158.8,92.3
			c17.4,2.3,34.3,3.4,50.4,3.4c69.5,0,122.6-20.3,126.8-51.8c5.1-38.9-66-80.2-158.8-92.3C2642.1,409.5,2625.1,408.4,2609.1,408.4
			L2609.1,408.4z"/>
	</g>
	<polygon class="st4" points="2518.5,376.5 2485.5,376.5 2485.5,337.5 	"/>
	<polygon class="st4" points="2554.5,379.5 2587.5,379.5 2587.5,340.5 	"/>
	<g>
		<path class="st3" d="M2508.8,473.5c-25.5,0-46.3-20.7-46.3-46.3v-24.5c0-25.5,20.7-46.3,46.3-46.3h46.5
			c25.5,0,46.3,20.7,46.3,46.3v24.5c0,25.5-20.7,46.3-46.3,46.3H2508.8z"/>
		<path d="M2555.2,357c25.2,0,45.8,20.5,45.8,45.8v24.5c0,25.2-20.5,45.8-45.8,45.8h-46.5c-25.2,0-45.8-20.5-45.8-45.8v-24.5
			c0-25.2,20.5-45.8,45.8-45.8H2555.2 M2555.2,356h-46.5c-25.7,0-46.8,21-46.8,46.8v24.5c0,25.7,21,46.8,46.8,46.8h46.5
			c25.7,0,46.8-21,46.8-46.8v-24.5C2602,377,2581,356,2555.2,356L2555.2,356z"/>
	</g>
	<g>
		<circle class="st3" cx="2477.5" cy="408.5" r="26"/>
		<path d="M2477.5,383c14.1,0,25.5,11.4,25.5,25.5s-11.4,25.5-25.5,25.5s-25.5-11.4-25.5-25.5S2463.4,383,2477.5,383 M2477.5,382
			c-14.6,0-26.5,11.9-26.5,26.5s11.9,26.5,26.5,26.5s26.5-11.9,26.5-26.5S2492.1,382,2477.5,382L2477.5,382z"/>
	</g>
	<g>
		<circle class="st3" cx="2555.5" cy="410.5" r="26"/>
		<path d="M2555.5,385c14.1,0,25.5,11.4,25.5,25.5s-11.4,25.5-25.5,25.5s-25.5-11.4-25.5-25.5S2541.4,385,2555.5,385 M2555.5,384
			c-14.6,0-26.5,11.9-26.5,26.5s11.9,26.5,26.5,26.5s26.5-11.9,26.5-26.5S2570.1,384,2555.5,384L2555.5,384z"/>
	</g>
	<polygon class="st4" points="2500.5,430.5 2518.5,459.5 2530.5,430.5 	"/>
	<circle class="st4" cx="2474.5" cy="408.5" r="12"/>
	<circle class="st4" cx="2555.5" cy="410.5" r="12"/>
	<path class="st7" d="M2745.9,395.4c-15.3,58.3-47.7,88.2-82.6,79c-34.9-9.2-46.8-39.9-31.4-98.2c15.3-58.3,42.6-96.4,77.5-87.2
		c20.8,5.5,26.6,29.6,31.6,54.1C2744.3,359.6,2752.1,371.9,2745.9,395.4z"/>
	<circle class="st5" cx="2554" cy="409" r="4.5"/>
	<circle class="st5" cx="2473" cy="408" r="4.5"/>
	<g>
		<rect x="0.5" y="1080.5" class="st9" width="749" height="1079"/>
		<path d="M749,1081v1078H1V1081H749 M750,1080H0v1080h750V1080L750,1080z"/>
	</g>
	<g>
		<path class="st3" d="M336.5,1646c-22.2,0-37.8-6.3-45.2-18.3c-9.9-16-4.3-40.2,15.8-68.2c20.1-28.2,52.4-56.8,90.8-80.5
			c47.8-29.5,98.4-47.2,135.5-47.2c22.2,0,37.8,6.3,45.2,18.3c20.4,33.1-27.4,99.8-106.6,148.8C424.2,1628.3,373.6,1646,336.5,1646z
			"/>
		<path d="M533.3,1432.2c22,0,37.5,6.3,44.8,18.1c9.7,15.8,4.2,39.8-15.8,67.7c-20.1,28.1-52.3,56.7-90.7,80.4
			c-47.7,29.5-98.2,47.1-135.2,47.1c-22,0-37.5-6.3-44.8-18.1c-9.7-15.8-4.2-39.8,15.8-67.7c20.1-28.1,52.3-56.7,90.7-80.4
			C445.8,1449.8,496.3,1432.2,533.3,1432.2L533.3,1432.2 M533.3,1431.2c-35.8,0-86.1,16.5-135.8,47.2
			c-79.6,49.2-127.4,116.1-106.7,149.5c7.8,12.5,24.1,18.6,45.7,18.6c35.8,0,86.1-16.5,135.8-47.2
			c79.6-49.2,127.4-116.1,106.7-149.5C571.2,1437.2,554.9,1431.2,533.3,1431.2L533.3,1431.2z"/>
	</g>
	<g>
		<path class="st3" d="M332.1,1686.5c-3,0-6.5-0.3-11-1c-1.5-0.2-3.2-0.4-4.9-0.6c-8.9-1.1-20-2.4-26-8.5l-44-44
			c-18-18-18-47.4,0-65.4l4.7-4.7c8.7-8.7,20.3-13.5,32.7-13.5c12.4,0,24,4.8,32.7,13.5l44,44c8.7,8.7,13.5,20.3,13.5,32.7
			s-4.8,24-13.5,32.7l-4.7,4.7C348.5,1683.4,341.4,1686.5,332.1,1686.5z"/>
		<path d="M283.5,1549.2c12.3,0,23.7,4.7,32.4,13.3l44,44c17.8,17.8,17.8,46.9,0,64.7l-4.7,4.7c-7,7-13.9,9.9-23.1,9.9
			c-3,0-6.5-0.3-10.9-1c-1.5-0.2-3.2-0.4-4.9-0.6c-8.8-1.1-19.8-2.4-25.7-8.4l-44-44c-17.8-17.8-17.8-46.9,0-64.7l4.7-4.7
			C259.8,1554,271.3,1549.2,283.5,1549.2 M283.5,1548.2c-12,0-24,4.5-33.1,13.6l-4.7,4.7c-18.2,18.2-18.2,47.9,0,66.1l44,44
			c7.4,7.4,21.6,7.9,31.2,9.3c4,0.6,7.6,1,11.1,1c8.7,0,16.1-2.5,23.8-10.2l4.7-4.7c18.2-18.2,18.2-47.9,0-66.1l-44-44
			C307.5,1552.8,295.5,1548.2,283.5,1548.2L283.5,1548.2z"/>
	</g>
	<g>
		<path class="st3" d="M269.5,1663.5c-7.9,0-15.2-3.5-20.2-9.6c-4.4-5.4-6.4-12.2-5.7-19.1s4.1-13.1,9.4-17.5
			c4.6-3.8,10.5-5.8,16.4-5.8c7.9,0,15.2,3.5,20.2,9.6c4.4,5.4,6.4,12.2,5.7,19.1s-4.1,13.1-9.4,17.5
			C281.3,1661.4,275.5,1663.5,269.5,1663.5z"/>
		<path d="M269.5,1611v1c7.7,0,14.9,3.4,19.8,9.4c8.9,10.9,7.2,27-3.7,35.9c-4.5,3.7-10.2,5.7-16.1,5.7c-7.7,0-14.9-3.4-19.8-9.4
			c-4.3-5.3-6.3-11.9-5.6-18.7s4-12.9,9.3-17.2c4.5-3.7,10.2-5.7,16.1-5.7L269.5,1611 M269.5,1611c-5.9,0-11.8,1.9-16.7,6
			c-11.3,9.2-13.1,25.9-3.8,37.3c5.2,6.4,12.9,9.8,20.6,9.8c5.9,0,11.8-1.9,16.7-6c11.3-9.2,13.1-25.9,3.8-37.3
			C284.8,1614.3,277.2,1611,269.5,1611L269.5,1611z"/>
	</g>
	<circle class="st4" cx="267.5" cy="1642.5" r="12"/>
	<polygon class="st4" points="268,1588.1 242.4,1608.9 217.8,1578.7 	"/>
	<path class="st4" d="M435.3,1433.1c24.9,54.9,18.7,98.5-14.2,113.4c-32.8,14.9-61.5-1.4-86.4-56.3s-27.8-101.7,5-116.6
		c19.6-8.9,39.3,6.1,58.6,22C411.4,1406.4,425.3,1411,435.3,1433.1z"/>
	<circle class="st5" cx="268" cy="1642.9" r="4.5"/>
	<polygon class="st4" points="275.5,1672.5 283.5,1693.5 296.5,1701.5 294.5,1679.5 277.5,1663.5 	"/>
	<g>
		<rect x="750.5" y="1080.5" class="st10" width="749" height="1079"/>
		<path d="M1499,1081v1078H751V1081H1499 M1500,1080H750v1080h750V1080L1500,1080z"/>
	</g>
	<g>
		<path class="st3" d="M1086.5,1646c-22.2,0-37.8-6.3-45.2-18.3c-9.9-16-4.3-40.2,15.8-68.2c20.1-28.2,52.4-56.8,90.8-80.5
			c47.8-29.5,98.4-47.2,135.5-47.2c22.2,0,37.8,6.3,45.2,18.3c9.9,16,4.3,40.2-15.8,68.2c-20.1,28.2-52.4,56.8-90.8,80.5
			C1174.2,1628.3,1123.6,1646,1086.5,1646z"/>
		<path d="M1283.3,1432.2c22,0,37.5,6.3,44.8,18.1c20.3,32.8-27.4,99.3-106.4,148.1c-47.7,29.5-98.2,47.1-135.2,47.1
			c-22,0-37.5-6.3-44.8-18.1c-9.7-15.8-4.2-39.8,15.8-67.7c20.1-28.1,52.3-56.7,90.7-80.4
			C1195.8,1449.8,1246.3,1432.2,1283.3,1432.2L1283.3,1432.2 M1283.3,1431.2c-35.8,0-86.1,16.5-135.8,47.2
			c-79.6,49.2-127.4,116.1-106.7,149.5c7.8,12.5,24.1,18.6,45.7,18.6c35.8,0,86.1-16.5,135.8-47.2
			c79.6-49.2,127.4-116.1,106.7-149.5C1321.2,1437.2,1304.9,1431.2,1283.3,1431.2L1283.3,1431.2z"/>
	</g>
	<g>
		<path class="st3" d="M1082.1,1686.5c-3,0-6.5-0.3-11-1c-1.5-0.2-3.2-0.4-4.9-0.6c-8.9-1.1-20-2.4-26-8.5l-44-44
			c-18-18-18-47.4,0-65.4l4.7-4.7c8.7-8.7,20.3-13.5,32.7-13.5s24,4.8,32.7,13.5l44,44c8.7,8.7,13.5,20.3,13.5,32.7
			s-4.8,24-13.5,32.7l-4.7,4.7C1098.5,1683.4,1091.4,1686.5,1082.1,1686.5z"/>
		<path d="M1033.5,1549.2c12.3,0,23.7,4.7,32.4,13.3l44,44c17.8,17.8,17.8,46.9,0,64.7l-4.7,4.7c-7,7-13.9,9.9-23.1,9.9
			c-3,0-6.5-0.3-10.9-1c-1.5-0.2-3.2-0.4-4.9-0.6c-8.8-1.1-19.8-2.4-25.7-8.4l-44-44c-17.8-17.8-17.8-46.9,0-64.7l4.7-4.7
			C1009.8,1554,1021.3,1549.2,1033.5,1549.2 M1033.5,1548.2c-12,0-24,4.5-33.1,13.6l-4.7,4.7c-18.2,18.2-18.2,47.9,0,66.1l44,44
			c7.4,7.4,21.6,7.9,31.2,9.3c4,0.6,7.6,1,11.1,1c8.7,0,16.1-2.5,23.8-10.2l4.7-4.7c18.2-18.2,18.2-47.9,0-66.1l-44-44
			C1057.5,1552.8,1045.5,1548.2,1033.5,1548.2L1033.5,1548.2z"/>
	</g>
	<g>
		<path class="st3" d="M1019.5,1663.5c-7.9,0-15.2-3.5-20.2-9.6c-4.4-5.4-6.4-12.2-5.7-19.1s4.1-13.1,9.4-17.5
			c4.6-3.8,10.5-5.8,16.4-5.8c7.9,0,15.2,3.5,20.2,9.6c4.4,5.4,6.4,12.2,5.7,19.1s-4.1,13.1-9.4,17.5
			C1031.3,1661.4,1025.5,1663.5,1019.5,1663.5z"/>
		<path d="M1019.5,1611v1c7.7,0,14.9,3.4,19.8,9.4c8.9,10.9,7.2,27-3.7,35.9c-4.5,3.7-10.2,5.7-16.1,5.7c-7.7,0-14.9-3.4-19.8-9.4
			c-4.3-5.3-6.3-11.9-5.6-18.7s4-12.9,9.3-17.2c4.5-3.7,10.2-5.7,16.1-5.7L1019.5,1611 M1019.5,1611c-5.9,0-11.8,1.9-16.7,6
			c-11.3,9.2-13.1,25.9-3.8,37.3c5.2,6.4,12.9,9.8,20.6,9.8c5.9,0,11.8-1.9,16.7-6c11.3-9.2,13.1-25.9,3.8-37.3
			C1034.8,1614.3,1027.2,1611,1019.5,1611L1019.5,1611z"/>
	</g>
	<circle class="st4" cx="1017.5" cy="1642.5" r="12"/>
	<polygon class="st4" points="1018,1588.1 992.4,1608.9 967.8,1578.7 	"/>
	<path class="st4" d="M1185.3,1433.1c24.9,54.9,18.7,98.5-14.2,113.4c-32.8,14.9-61.5-1.4-86.4-56.3s-27.8-101.7,5-116.6
		c19.6-8.9,39.3,6.1,58.6,22C1161.4,1406.4,1175.3,1411,1185.3,1433.1z"/>
	<circle class="st5" cx="1018" cy="1642.9" r="4.5"/>
	<polygon class="st4" points="1030.5,1665.4 1014.5,1671.5 1014.5,1682.5 1035.1,1674.3 1036,1674 	"/>
	<polygon class="st4" points="1034.1,1673.8 1029.2,1688.6 1040,1677.9 	"/>
	<g>
		<rect x="1500.5" y="1080.5" class="st11" width="749" height="1079"/>
		<path d="M2249,1081v1078h-748V1081H2249 M2250,1080h-750v1080h750V1080L2250,1080z"/>
	</g>
	<g>
		<path class="st3" d="M1836.5,1646c-22.2,0-37.8-6.3-45.2-18.3c-9.9-16-4.3-40.2,15.8-68.2c20.1-28.2,52.4-56.8,90.8-80.5
			c47.8-29.5,98.4-47.2,135.5-47.2c22.2,0,37.8,6.3,45.2,18.3c9.9,16,4.3,40.2-15.8,68.2c-20.1,28.2-52.4,56.8-90.8,80.5
			C1924.2,1628.3,1873.6,1646,1836.5,1646z"/>
		<path d="M2033.3,1432.2c22,0,37.5,6.3,44.8,18.1c9.7,15.8,4.2,39.8-15.8,67.7c-20.1,28.1-52.3,56.7-90.7,80.4
			c-47.7,29.5-98.2,47.1-135.2,47.1c-22,0-37.5-6.3-44.8-18.1c-20.3-32.8,27.4-99.3,106.4-148.1
			C1945.8,1449.8,1996.3,1432.2,2033.3,1432.2L2033.3,1432.2 M2033.3,1431.2c-35.8,0-86.1,16.5-135.8,47.2
			c-79.6,49.2-127.4,116.1-106.7,149.5c7.8,12.5,24.1,18.6,45.7,18.6c35.8,0,86.1-16.5,135.8-47.2
			c79.6-49.2,127.4-116.1,106.7-149.5C2071.2,1437.2,2054.9,1431.2,2033.3,1431.2L2033.3,1431.2z"/>
	</g>
	<g>
		<path class="st3" d="M1832.1,1686.5c-3,0-6.5-0.3-11-1c-1.5-0.2-3.2-0.4-4.9-0.6c-8.9-1.1-20-2.4-26-8.5l-44-44
			c-18-18-18-47.4,0-65.4l4.7-4.7c8.7-8.7,20.3-13.5,32.7-13.5s24,4.8,32.7,13.5l44,44c8.7,8.7,13.5,20.3,13.5,32.7
			s-4.8,24-13.5,32.7l-4.7,4.7C1848.5,1683.4,1841.4,1686.5,1832.1,1686.5z"/>
		<path d="M1783.5,1549.2c12.3,0,23.7,4.7,32.4,13.3l44,44c17.8,17.8,17.8,46.9,0,64.7l-4.7,4.7c-7,7-13.9,9.9-23.1,9.9
			c-3,0-6.5-0.3-10.9-1c-1.5-0.2-3.2-0.4-4.9-0.6c-8.8-1.1-19.8-2.4-25.7-8.4l-44-44c-17.8-17.8-17.8-46.9,0-64.7l4.7-4.7
			C1759.8,1554,1771.3,1549.2,1783.5,1549.2 M1783.5,1548.2c-12,0-24,4.5-33.1,13.6l-4.7,4.7c-18.2,18.2-18.2,47.9,0,66.1l44,44
			c7.4,7.4,21.6,7.9,31.2,9.3c4,0.6,7.6,1,11.1,1c8.7,0,16.1-2.5,23.8-10.2l4.7-4.7c18.2-18.2,18.2-47.9,0-66.1l-44-44
			C1807.5,1552.8,1795.5,1548.2,1783.5,1548.2L1783.5,1548.2z"/>
	</g>
	<g>
		<path class="st3" d="M1769.5,1663.5c-7.9,0-15.2-3.5-20.2-9.6c-4.4-5.4-6.4-12.2-5.7-19.1s4.1-13.1,9.4-17.5
			c4.6-3.8,10.5-5.8,16.4-5.8c7.9,0,15.2,3.5,20.2,9.6c4.4,5.4,6.4,12.2,5.7,19.1s-4.1,13.1-9.4,17.5
			C1781.3,1661.4,1775.5,1663.5,1769.5,1663.5z"/>
		<path d="M1769.5,1611v1c7.7,0,14.9,3.4,19.8,9.4c8.9,10.9,7.2,27-3.7,35.9c-4.5,3.7-10.2,5.7-16.1,5.7c-7.7,0-14.9-3.4-19.8-9.4
			c-4.3-5.3-6.3-11.9-5.6-18.7c0.7-6.8,4-12.9,9.3-17.2c4.5-3.7,10.2-5.7,16.1-5.7L1769.5,1611 M1769.5,1611c-5.9,0-11.8,1.9-16.7,6
			c-11.3,9.2-13.1,25.9-3.8,37.3c5.2,6.4,12.9,9.8,20.6,9.8c5.9,0,11.8-1.9,16.7-6c11.3-9.2,13.1-25.9,3.8-37.3
			C1784.8,1614.3,1777.2,1611,1769.5,1611L1769.5,1611z"/>
	</g>
	<circle class="st4" cx="1767.5" cy="1642.5" r="12"/>
	<polygon class="st4" points="1768,1588.1 1742.4,1608.9 1717.8,1578.7 	"/>
	<path class="st4" d="M1935.3,1433.1c24.9,54.9,18.7,98.5-14.2,113.4c-32.8,14.9-61.5-1.4-86.4-56.3s-27.8-101.7,5-116.6
		c19.6-8.9,39.3,6.1,58.6,22C1911.4,1406.4,1925.3,1411,1935.3,1433.1z"/>
	<circle class="st5" cx="1768" cy="1642.9" r="4.5"/>
	<polygon class="st4" points="1784.1,1673.8 1779.2,1688.6 1790,1677.9 	"/>

		<ellipse transform="matrix(0.5369 -0.8436 0.8436 0.5369 -595.1146 2280.8618)" class="st4" cx="1780" cy="1682.5" rx="3.5" ry="24"/>
	<polygon class="st4" points="1780.5,1665.4 1764.5,1671.5 1764.5,1682.5 1785.1,1674.3 1786,1674 	"/>
	<g>
		<rect x="2250.5" y="1080.5" class="st12" width="749" height="1079"/>
		<path d="M2999,1081v1078h-748V1081H2999 M3000,1080h-750v1080h750V1080L3000,1080z"/>
	</g>
	<g>
		<path class="st3" d="M2687.8,1627.6c-4.7,0-9.4-0.1-14.1-0.2c-45.2-1.6-87.3-10.4-118.8-24.9c-31.3-14.4-48.2-32.7-47.6-51.4
			c0.6-17.7,17.1-34.1,46.4-46.2c29.3-12.1,68.6-18.7,110.8-18.7c4.7,0,9.4,0.1,14.1,0.2c45.2,1.6,87.3,10.4,118.8,24.9
			c31.3,14.4,48.2,32.7,47.6,51.4c-0.6,17.7-17.1,34.1-46.4,46.2C2769.3,1620.9,2730,1627.6,2687.8,1627.6z"/>
		<path d="M2664.5,1486.7c4.6,0,9.4,0.1,14,0.2c45.1,1.6,87.2,10.4,118.6,24.8c31.1,14.3,47.9,32.4,47.3,50.9
			c-0.6,17.5-17,33.8-46.1,45.7c-29.2,12-68.5,18.7-110.6,18.7c-4.6,0-9.4-0.1-14.1-0.2c-45.1-1.6-87.2-10.4-118.6-24.8
			c-31.1-14.3-47.9-32.4-47.3-50.9c0.6-17.5,17-33.8,46.1-45.7C2583.1,1493.3,2622.4,1486.7,2664.5,1486.7L2664.5,1486.7
			 M2664.5,1485.7c-87,0-156.4,28.2-157.6,65.4c-1.4,39.2,73.3,73.6,166.8,76.8c4.7,0.2,9.4,0.2,14.1,0.2
			c87,0,156.4-28.2,157.6-65.4c1.4-39.2-73.3-73.6-166.8-76.8C2673.9,1485.7,2669.2,1485.7,2664.5,1485.7L2664.5,1485.7z"/>
	</g>
	<g>
		<path class="st3" d="M2525.8,1628.1c-10.1,0-17.1-4.5-25.8-12.4c-1.2-1-2.4-2.1-3.7-3.3c-6.8-5.8-15.3-13.1-16.9-21.5l-12.2-61.1
			c-5-25,11.3-49.4,36.3-54.4l6.5-1.3c3-0.6,6-0.9,9-0.9c22,0,41.1,15.6,45.4,37.2l12.2,61.1c2.4,12.1-0.1,24.4-6.9,34.7
			c-6.9,10.3-17.3,17.3-29.4,19.7l-6.5,1.3C2530.9,1627.8,2528.3,1628.1,2525.8,1628.1z"/>
		<path d="M2519,1472.7v1h0c21.8,0,40.6,15.5,44.9,36.8l12.2,61.1c2.4,11.9,0,24.1-6.9,34.3s-17.1,17.1-29.1,19.5l-6.5,1.3
			c-2.8,0.6-5.4,0.8-7.9,0.8c-9.9,0-16.8-4.5-25.4-12.3c-1.2-1-2.4-2.1-3.7-3.3c-6.7-5.8-15.1-13-16.8-21.2l-12.2-61.1
			c-2.4-11.9,0-24.1,6.9-34.3c6.8-10.2,17.1-17.1,29.1-19.5l6.5-1.3c2.9-0.6,5.9-0.9,8.9-0.9L2519,1472.7 M2519,1472.7
			c-3,0-6.1,0.3-9.1,0.9l-6.5,1.3c-25.2,5-41.7,29.8-36.7,55l12.2,61.1c2,10.2,13.6,18.5,20.8,25c8.6,7.7,15.8,12.5,26.1,12.5
			c2.5,0,5.2-0.3,8.1-0.9l6.5-1.3c25.2-5,41.7-29.8,36.7-55l-12.2-61.1C2560.5,1488.2,2540.9,1472.7,2519,1472.7L2519,1472.7z"/>
	</g>
	<g>
		<path class="st3" d="M2481.1,1573.2c-12.1,0-22.1-9.1-23.2-21.1c-0.6-6.2,1.3-12.3,5.2-17.1s9.6-7.8,15.8-8.4
			c0.7-0.1,1.5-0.1,2.2-0.1c12.1,0,22.1,9.1,23.2,21.1c0.6,6.2-1.3,12.3-5.2,17.1c-4,4.8-9.6,7.8-15.8,8.4
			C2482.6,1573.1,2481.9,1573.2,2481.1,1573.2z"/>
		<path d="M2481.2,1526v1c11.8,0,21.6,8.9,22.7,20.7c0.6,6.1-1.2,12-5.1,16.7c-3.9,4.7-9.4,7.6-15.4,8.2c-0.7,0.1-1.5,0.1-2.2,0.1
			c-11.8,0-21.6-8.9-22.7-20.7c-0.6-6.1,1.2-12,5.1-16.7c3.9-4.7,9.4-7.6,15.4-8.2c0.7-0.1,1.5-0.1,2.2-0.1L2481.2,1526
			 M2481.2,1526c-0.8,0-1.5,0-2.3,0.1c-13.1,1.3-22.7,12.9-21.5,26c1.2,12.3,11.6,21.6,23.7,21.6c0.8,0,1.5,0,2.3-0.1
			c13.1-1.3,22.7-12.9,21.5-26C2503.7,1535.2,2493.3,1526,2481.2,1526L2481.2,1526z"/>
	</g>
	<circle class="st4" cx="2479.4" cy="1550.2" r="12"/>
	<polygon class="st4" points="2510,1505.2 2477.1,1508.3 2473.4,1469.5 	"/>
	<path class="st4" d="M2729.7,1588.7c-20.8-56.6-55.8-83.3-89.7-70.9c-33.9,12.4-42.8,44.1-22,100.7s51.5,91.9,85.4,79.5
		c20.2-7.4,23.7-31.9,26.3-56.8C2731.5,1624.5,2738,1611.5,2729.7,1588.7z"/>
	<circle class="st5" cx="2479.6" cy="1550.8" r="4.5"/>
	<polygon class="st4" points="2475.8,1585.5 2463.5,1595.1 2478.4,1592.2 	"/>

		<ellipse transform="matrix(0.6432 -0.7657 0.7657 0.6432 -337.39 2456.7219)" class="st4" cx="2467.6" cy="1590.4" rx="3.5" ry="24"/>
	<polygon class="st4" points="2477.4,1576.5 2460.8,1572.7 2454.7,1581.8 2476.3,1586.4 2477.3,1586.6 	"/>
	<g>
		<rect x="3000.5" y="1080.5" class="st13" width="749" height="1079"/>
		<path d="M3749,1081v1078h-748V1081H3749 M3750,1080h-750v1080h750V1080L3750,1080z"/>
	</g>
	<g>
		<path class="st3" d="M3534.2,1678.9c-36.8,0-86.8-16.5-133.8-44c-80.3-47.1-129.7-112.7-110-146.3c7.4-12.7,23.9-19.4,47.6-19.4
			c36.8,0,86.8,16.5,133.8,44c80.3,47.1,129.7,112.7,110,146.3C3574.3,1672.2,3557.9,1678.9,3534.2,1678.9z"/>
		<path d="M3338,1468.7v1c36.7,0,86.6,16.4,133.5,44c80.1,47,129.4,112.3,109.8,145.6c-7.3,12.5-23.7,19.2-47.2,19.2
			c-36.7,0-86.6-16.4-133.5-44c-38.9-22.8-71.8-50.6-92.5-78.3c-20.6-27.4-26.7-51.3-17.3-67.3c7.3-12.5,23.7-19.2,47.2-19.2
			L3338,1468.7 M3338,1468.7c-23,0-40.2,6.4-48,19.6c-19.8,33.8,29.5,99.6,110.2,147c49.1,28.8,98.4,44.1,134,44.1
			c23,0,40.2-6.4,48-19.6c19.8-33.8-29.5-99.6-110.2-147C3422.9,1484,3373.6,1468.7,3338,1468.7L3338,1468.7z"/>
	</g>
	<g>
		<path class="st3" d="M3297.3,1572.2c-4.6,0-9.1-0.7-13.5-2l-6.4-2c-14.1-4.4-19.2-12.2-24.2-26.2c-0.5-1.5-1.1-3-1.7-4.6
			c-3.2-8.4-7.2-18.8-4.7-27l18.3-59.5c5.9-19.2,24.1-32.6,44.3-32.6c4.6,0,9.1,0.7,13.5,2l6.4,2c11.8,3.6,21.4,11.6,27.2,22.6
			c5.8,11,7,23.5,3.4,35.2l-18.3,59.5C3335.7,1558.7,3317.4,1572.2,3297.3,1572.2z"/>
		<path d="M3309.4,1417.7v1h0c4.5,0,9,0.7,13.4,2l6.4,2c11.6,3.6,21.2,11.5,26.9,22.4s6.9,23.2,3.3,34.8l-18.3,59.5
			c-2.9,9.5-8.8,17.6-16.8,23.5c-7.8,5.7-17.4,8.8-27,8.8c-4.5,0-9-0.7-13.4-2l-6.4-2c-13.9-4.3-19-12.1-23.9-25.9
			c-0.5-1.5-1.1-3-1.7-4.7c-3.2-8.3-7.1-18.6-4.6-26.7l18.3-59.5c2.9-9.5,8.8-17.6,16.8-23.5c7.8-5.7,17.4-8.8,27-8.8L3309.4,1417.7
			 M3309.4,1417.7c-20,0-38.6,12.9-44.8,33l-18.3,59.5c-3.1,9.9,3.1,22.8,6.4,31.9c4.8,13.5,9.9,22,24.5,26.5l6.4,2
			c4.5,1.4,9.1,2.1,13.7,2.1c20,0,38.6-12.9,44.8-33l18.3-59.5c7.6-24.6-6.3-50.9-30.9-58.4l-6.4-2
			C3318.6,1418.4,3314,1417.7,3309.4,1417.7L3309.4,1417.7z"/>
	</g>
	<g>
		<path class="st3" d="M3267.9,1498.4c-3.1,0-6.2-0.6-9.1-1.9c-11.9-5-17.4-18.7-12.4-30.6c3.7-8.6,12.1-14.2,21.5-14.2
			c3.1,0,6.2,0.6,9.1,1.9c11.9,5,17.4,18.7,12.4,30.6C3285.7,1492.8,3277.3,1498.4,3267.9,1498.4z"/>
		<path d="M3267.9,1451.2v1h0c3.1,0,6.1,0.6,8.9,1.8c11.6,4.9,17,18.3,12.1,29.9c-3.6,8.5-11.8,13.9-21,13.9c-3.1,0-6.1-0.6-8.9-1.8
			c-11.6-4.9-17-18.3-12.1-29.9c3.6-8.5,11.8-13.9,21-13.9L3267.9,1451.2 M3267.9,1451.2c-9.3,0-18.1,5.5-22,14.5
			c-5.1,12.1,0.5,26.1,12.7,31.3c3,1.3,6.2,1.9,9.3,1.9c9.3,0,18.1-5.5,22-14.5c5.1-12.1-0.5-26.1-12.7-31.3
			C3274.2,1451.8,3271,1451.2,3267.9,1451.2L3267.9,1451.2z"/>
	</g>
	<circle class="st4" cx="3266.2" cy="1474.5" r="12"/>
	<polygon class="st4" points="3314.5,1449.5 3284.1,1436.6 3299.3,1400.7 	"/>
	<path class="st4" d="M3520.4,1495.1c-29.9,52.3-68.9,72.9-100.2,55s-34.9-50.6-5-103s66.1-82.1,97.4-64.2
		c18.7,10.7,18,35.4,16.5,60.4C3528.1,1460.2,3532.5,1474.1,3520.4,1495.1z"/>
	<circle class="st5" cx="3266.1" cy="1475.1" r="4.5"/>
	<polygon class="st4" points="3246.2,1503.8 3230.8,1506.4 3245.4,1511 	"/>

		<ellipse transform="matrix(0.9301 -0.3673 0.3673 0.9301 -326.2797 1294.0313)" class="st4" cx="3236.6" cy="1504.2" rx="3.5" ry="24"/>
	<polygon class="st4" points="3252,1496.7 3239.1,1485.4 3229.4,1490.5 3246.2,1504.9 3247,1505.6 	"/>
	<g>
		<rect x="3750.5" y="1080.5" class="st14" width="749" height="1079"/>
		<path d="M4499,1081v1078h-748V1081H4499 M4500,1080h-750v1080h750V1080L4500,1080z"/>
	</g>
	<g>
		<path class="st3" d="M4297.6,1667.2c-36.1,0-87.9-17.7-138.4-47.4c-39-22.9-72.3-49.9-94-76.2c-21.5-26.2-28.8-48.4-20.5-62.5
			c5.8-10,19.2-15.2,38.5-15.2c36.1,0,87.9,17.7,138.4,47.4c39,22.9,72.3,49.9,94,76.2c21.5,26.2,28.8,48.4,20.5,62.5
			C4330.3,1661.9,4317,1667.2,4297.6,1667.2z"/>
		<path d="M4083.3,1466.3c36,0,87.7,17.7,138.2,47.3c38.9,22.8,72.2,49.9,93.8,76.1c21.4,26,28.6,48,20.4,62
			c-5.7,9.8-18.9,15-38.1,15c-36,0-87.7-17.7-138.2-47.3c-38.9-22.8-72.2-49.9-93.8-76.1c-21.4-26-28.6-48-20.4-62
			C4051,1471.5,4064.1,1466.3,4083.3,1466.3L4083.3,1466.3 M4083.3,1465.3c-18.9,0-32.8,5-39,15.5c-17.4,29.7,33.9,92.1,114.6,139.5
			c52.2,30.6,103.9,47.4,138.7,47.4c18.9,0,32.8-5,39-15.5c17.4-29.7-33.9-92.1-114.6-139.5
			C4169.8,1482.1,4118.1,1465.3,4083.3,1465.3L4083.3,1465.3z"/>
	</g>
	<g>
		<path class="st3" d="M4047.3,1572.2c-4.6,0-9.1-0.7-13.5-2l-6.4-2c-14.1-4.4-19.2-12.2-24.2-26.2c-0.5-1.5-1.1-3-1.7-4.6
			c-3.2-8.4-7.2-18.8-4.7-27l18.3-59.5c5.9-19.2,24.1-32.6,44.3-32.6c4.6,0,9.1,0.7,13.5,2l6.4,2c11.8,3.6,21.4,11.6,27.2,22.6
			c5.8,11,7,23.5,3.4,35.2l-18.3,59.5C4085.7,1558.7,4067.4,1572.2,4047.3,1572.2z"/>
		<path d="M4059.4,1417.7v1h0c4.5,0,9,0.7,13.4,2l6.4,2c24.1,7.4,37.7,33.1,30.3,57.2l-18.3,59.5c-2.9,9.5-8.8,17.6-16.8,23.5
			c-7.8,5.7-17.4,8.8-27,8.8c-4.5,0-9-0.7-13.4-2l-6.4-2c-13.9-4.3-19-12.1-23.9-25.9c-0.5-1.5-1.1-3-1.7-4.7
			c-3.2-8.3-7.1-18.6-4.6-26.7l18.3-59.5c2.9-9.5,8.8-17.6,16.8-23.5c7.8-5.7,17.4-8.8,27-8.8L4059.4,1417.7 M4059.4,1417.7
			c-20,0-38.6,12.9-44.8,33l-18.3,59.5c-3.1,9.9,3.1,22.8,6.4,31.9c4.8,13.5,9.9,22,24.5,26.5l6.4,2c4.5,1.4,9.1,2.1,13.7,2.1
			c20,0,38.6-12.9,44.8-33l18.3-59.5c7.6-24.6-6.3-50.9-30.9-58.4l-6.4-2C4068.6,1418.4,4064,1417.7,4059.4,1417.7L4059.4,1417.7z"
			/>
	</g>
	<g>
		<path class="st3" d="M4014.7,1496.9c-2.8,0-5.5-0.6-8.1-1.7c-5.1-2.2-9.1-6.2-11.2-11.4c-2.1-5.2-2.1-11,0.2-16.2
			c3.3-7.9,11-12.9,19.5-12.9c2.8,0,5.5,0.6,8.1,1.7c5.1,2.2,9.1,6.2,11.2,11.4c2.1,5.2,2.1,11-0.2,16.2
			C4030.8,1491.9,4023.1,1496.9,4014.7,1496.9z"/>
		<path d="M4014.9,1455.2L4014.9,1455.2c2.7,0,5.4,0.5,7.9,1.6c5,2.1,8.9,6.1,11,11.1c2.1,5.1,2,10.7-0.1,15.9
			c-3.3,7.7-10.7,12.6-19,12.6c-2.7,0-5.4-0.5-7.9-1.6c-5-2.1-8.9-6.1-11-11.1c-2.1-5.1-2-10.7,0.1-15.9
			C3999.2,1460.2,4006.6,1455.2,4014.9,1455.2 M4014.9,1454.2c-8.4,0-16.4,5-19.9,13.3c-4.7,11,0.4,23.7,11.3,28.3
			c2.7,1.1,5.5,1.7,8.3,1.7c8.4,0,16.4-5,19.9-13.3c4.7-11-0.4-23.7-11.3-28.3C4020.5,1454.7,4017.7,1454.2,4014.9,1454.2
			L4014.9,1454.2z"/>
	</g>
	<circle class="st4" cx="4016.2" cy="1474.5" r="12"/>
	<polygon class="st4" points="4064.5,1449.5 4034.1,1436.6 4049.3,1400.7 	"/>
	<path class="st4" d="M4223.8,1626.9c8-59.7-10.5-99.7-46.3-104.5c-35.7-4.8-58.4,19.1-66.4,78.8c-8,59.7,2.7,105.4,38.5,110.2
		c21.4,2.9,35.8-17.2,49.8-38C4208.7,1659.3,4220.6,1650.9,4223.8,1626.9z"/>
	<circle class="st5" cx="4016.1" cy="1475.1" r="4.5"/>
	<polygon class="st4" points="3996.2,1503.8 3980.8,1506.4 3995.4,1511 	"/>

		<ellipse transform="matrix(0.988 -0.1546 0.1546 0.988 -184.6071 634.3334)" class="st4" cx="3986.6" cy="1504.2" rx="3.5" ry="24"/>
	<polygon class="st4" points="4002,1496.7 3989.1,1485.4 3979.4,1490.5 3996.2,1504.9 3997,1505.6 	"/>
	<g>
		<rect x="0.5" y="2160.5" class="st15" width="749" height="1079"/>
		<path d="M749,2161v1078H1V2161H749 M750,2160H0v1080h750V2160L750,2160z"/>
	</g>
	<g>
		<path class="st3" d="M441.5,2715.5c-16.4,0-33.3-1.1-50.3-3.3c-44.8-5.8-86-18.6-115.9-36.1c-29.8-17.3-44.9-37.1-42.5-55.7
			c2-15.1,15.3-28.1,38.5-37.4c22.6-9.1,53.7-14,87.7-14c16.4,0,33.3,1.1,50.3,3.3c92.3,12,163.4,53.2,158.4,91.8
			c-2,15.1-15.3,28.1-38.5,37.4C506.6,2710.5,475.5,2715.5,441.5,2715.5z"/>
		<path d="M359.1,2569.4c16.3,0,33.3,1.1,50.3,3.3c92.1,12,162.9,52.9,157.9,91.2c-1.9,14.9-15.2,27.7-38.2,37
			c-22.5,9-53.6,14-87.5,14c-16.3,0-33.3-1.1-50.3-3.3c-92.1-12-162.9-52.9-157.9-91.2c1.9-14.9,15.2-27.7,38.2-37
			C294.1,2574.4,325.2,2569.4,359.1,2569.4L359.1,2569.4 M359.1,2568.4c-69.5,0-122.6,20.3-126.8,51.8c-5.1,38.9,66,80.2,158.8,92.3
			c17.4,2.3,34.3,3.4,50.4,3.4c69.5,0,122.6-20.3,126.8-51.8c5.1-38.9-66-80.2-158.8-92.3C392.1,2569.5,375.1,2568.4,359.1,2568.4
			L359.1,2568.4z"/>
	</g>
	<polygon class="st4" points="268.5,2536.5 235.5,2536.5 235.5,2497.5 	"/>
	<polygon class="st4" points="304.5,2539.5 337.5,2539.5 337.5,2500.5 	"/>
	<g>
		<path class="st3" d="M258.8,2633.5c-25.5,0-46.3-20.7-46.3-46.3v-24.5c0-25.5,20.7-46.3,46.3-46.3h46.5
			c25.5,0,46.3,20.7,46.3,46.3v24.5c0,25.5-20.7,46.3-46.3,46.3H258.8z"/>
		<path d="M305.2,2517c25.2,0,45.8,20.5,45.8,45.8v24.5c0,25.2-20.5,45.8-45.8,45.8h-46.5c-25.2,0-45.8-20.5-45.8-45.8v-24.5
			c0-25.2,20.5-45.8,45.8-45.8H305.2 M305.2,2516h-46.5c-25.7,0-46.8,21-46.8,46.8v24.5c0,25.7,21,46.8,46.8,46.8h46.5
			c25.7,0,46.8-21,46.8-46.8v-24.5C352,2537,331,2516,305.2,2516L305.2,2516z"/>
	</g>
	<g>
		<circle class="st3" cx="227.5" cy="2568.5" r="26"/>
		<path d="M227.5,2543c14.1,0,25.5,11.4,25.5,25.5s-11.4,25.5-25.5,25.5s-25.5-11.4-25.5-25.5S213.4,2543,227.5,2543 M227.5,2542
			c-14.6,0-26.5,11.9-26.5,26.5s11.9,26.5,26.5,26.5s26.5-11.9,26.5-26.5S242.1,2542,227.5,2542L227.5,2542z"/>
	</g>
	<g>
		<circle class="st3" cx="305.5" cy="2570.5" r="26"/>
		<path d="M305.5,2545c14.1,0,25.5,11.4,25.5,25.5s-11.4,25.5-25.5,25.5s-25.5-11.4-25.5-25.5S291.4,2545,305.5,2545 M305.5,2544
			c-14.6,0-26.5,11.9-26.5,26.5s11.9,26.5,26.5,26.5s26.5-11.9,26.5-26.5S320.1,2544,305.5,2544L305.5,2544z"/>
	</g>
	<g>
		<path class="st3" d="M266,2607.5c-17,0-28.1-1.8-28.5-3c0.4-1.2,11.5-3,28.5-3s28.1,1.8,28.5,3
			C294.1,2605.7,283,2607.5,266,2607.5z"/>
		<path d="M266,2602c15.4,0,25.4,1.4,27.7,2.5c-2.3,1.1-12.3,2.5-27.7,2.5s-25.4-1.4-27.7-2.5C240.6,2603.4,250.6,2602,266,2602
			 M266,2601c-16,0-29,1.6-29,3.5s13,3.5,29,3.5s29-1.6,29-3.5S282,2601,266,2601L266,2601z"/>
	</g>
	<polygon class="st4" points="250.5,2590.5 268.5,2619.5 280.5,2590.5 	"/>
	<circle class="st4" cx="224.5" cy="2568.5" r="12"/>
	<circle class="st4" cx="305.5" cy="2570.5" r="12"/>
	<path class="st4" d="M495.9,2555.4c-15.3,58.3-47.7,88.2-82.6,79s-46.8-39.9-31.4-98.2c15.3-58.3,42.6-96.4,77.5-87.2
		c20.8,5.5,26.6,29.6,31.6,54.1C494.3,2519.6,502.1,2531.9,495.9,2555.4z"/>
	<circle class="st5" cx="304" cy="2569" r="4.5"/>
	<circle class="st5" cx="223" cy="2568" r="4.5"/>
	<g>
		<rect x="750.5" y="2160.5" class="st16" width="749" height="1079"/>
		<path d="M1499,2161v1078H751V2161H1499 M1500,2160H750v1080h750V2160L1500,2160z"/>
	</g>
	<g>
		<path class="st3" d="M1193.1,2715.6c-16.9,0-34.4-1.2-52-3.5c-44.8-5.8-86-18.4-116-35.3c-29.9-16.9-45-36-42.7-54
			c1.9-14.5,15-26.8,37.8-35.7c22.5-8.8,52.4-13.4,86.5-13.4c16.9,0,34.4,1.2,52,3.5c92.3,12,163.5,52.1,158.7,89.3
			c-1.9,14.5-15,26.8-37.8,35.7C1257.1,2711,1227.2,2715.6,1193.1,2715.6z"/>
		<path d="M1106.8,2574.3c16.8,0,34.3,1.2,51.9,3.5c44.7,5.8,85.9,18.4,115.8,35.3c29.7,16.8,44.7,35.7,42.4,53.5
			c-1.9,14.3-14.8,26.5-37.5,35.3c-22.1,8.6-52.8,13.3-86.3,13.3c-16.9,0-34.3-1.2-51.9-3.5c-44.7-5.8-85.9-18.4-115.8-35.3
			c-29.7-16.8-44.7-35.7-42.4-53.5c1.9-14.3,14.8-26.5,37.5-35.3C1042.6,2579,1073.3,2574.3,1106.8,2574.3L1106.8,2574.3
			 M1106.8,2573.3c-68.7,0-120.9,19.3-124.8,49.5c-4.9,37.5,66.3,77.8,159.1,89.9c18,2.3,35.5,3.5,52,3.5
			c68.7,0,120.9-19.3,124.8-49.5c4.9-37.5-66.3-77.8-159.1-89.9C1140.8,2574.4,1123.3,2573.3,1106.8,2573.3L1106.8,2573.3z"/>
	</g>
	<polygon class="st4" points="1018.5,2536.5 985.5,2536.5 985.5,2497.5 	"/>
	<polygon class="st4" points="1054.5,2539.5 1087.5,2539.5 1087.5,2500.5 	"/>
	<g>
		<path class="st3" d="M1008.8,2633.5c-25.5,0-46.3-20.7-46.3-46.3v-20.5c0-25.5,20.7-46.3,46.3-46.3h46.5
			c25.5,0,46.3,20.7,46.3,46.3v20.5c0,25.5-20.7,46.3-46.3,46.3H1008.8z"/>
		<path d="M1055.2,2521c25.2,0,45.8,20.5,45.8,45.8v20.5c0,25.2-20.5,45.8-45.8,45.8h-46.5c-25.2,0-45.8-20.5-45.8-45.8v-20.5
			c0-25.2,20.5-45.8,45.8-45.8H1055.2 M1055.2,2520h-46.5c-25.7,0-46.8,21-46.8,46.8v20.5c0,25.7,21,46.8,46.8,46.8h46.5
			c25.7,0,46.8-21,46.8-46.8v-20.5C1102,2541,1081,2520,1055.2,2520L1055.2,2520z"/>
	</g>
	<g>
		<circle class="st3" cx="977.5" cy="2568.5" r="26"/>
		<path d="M977.5,2543c14.1,0,25.5,11.4,25.5,25.5s-11.4,25.5-25.5,25.5s-25.5-11.4-25.5-25.5S963.4,2543,977.5,2543 M977.5,2542
			c-14.6,0-26.5,11.9-26.5,26.5s11.9,26.5,26.5,26.5s26.5-11.9,26.5-26.5S992.1,2542,977.5,2542L977.5,2542z"/>
	</g>
	<g>
		<circle class="st3" cx="1055.5" cy="2570.5" r="26"/>
		<path d="M1055.5,2545c14.1,0,25.5,11.4,25.5,25.5s-11.4,25.5-25.5,25.5s-25.5-11.4-25.5-25.5S1041.4,2545,1055.5,2545
			 M1055.5,2544c-14.6,0-26.5,11.9-26.5,26.5s11.9,26.5,26.5,26.5s26.5-11.9,26.5-26.5S1070.1,2544,1055.5,2544L1055.5,2544z"/>
	</g>
	<g>
		<path class="st3" d="M1039.6,2610.3c-5.4,0-14.5-1.1-24.1-2.9c-16.7-3.1-27.3-6.9-27.5-8.2h0c0,0,0.5-0.6,4.4-0.6
			c5.4,0,14.5,1.1,24.1,2.9c16.7,3.1,27.3,6.9,27.5,8.2h0C1044,2609.7,1043.6,2610.3,1039.6,2610.3z"/>
		<path d="M992.4,2599.2L992.4,2599.2c5.4,0,14.4,1.1,24.1,2.9c15,2.8,24.6,6,26.7,7.5c-0.5,0.1-1.6,0.3-3.6,0.3
			c-5.4,0-14.4-1.1-24.1-2.9c-15-2.8-24.6-6-26.7-7.5C989.4,2599.3,990.4,2599.2,992.4,2599.2 M992.4,2598.2c-3,0-4.8,0.3-4.9,1
			c-0.4,1.9,12.1,5.8,27.9,8.8c10,1.9,19,2.9,24.2,2.9c3,0,4.8-0.3,4.9-1c0.4-1.9-12.1-5.8-27.9-8.8
			C1006.6,2599.2,997.7,2598.2,992.4,2598.2L992.4,2598.2z"/>
	</g>
	<polygon class="st4" points="1000.5,2590.5 1018.5,2619.5 1030.5,2590.5 	"/>
	<circle class="st4" cx="974.5" cy="2568.5" r="12"/>
	<circle class="st4" cx="1055.5" cy="2570.5" r="12"/>
	<path class="st4" d="M1230.3,2687.7c-6.1-59.9-33.5-94.5-69.4-90.8c-35.9,3.7-52.4,32.2-46.2,92.1s27.2,101.8,63.1,98.1
		c21.4-2.2,30.8-25.1,39.6-48.5C1223.2,2722.8,1232.8,2711.8,1230.3,2687.7z"/>
	<circle class="st5" cx="1054" cy="2569" r="4.5"/>
	<circle class="st5" cx="973" cy="2568" r="4.5"/>
	<g>
		<rect class="st17" width="750" height="1080"/>
	</g>
	<path class="st4" d="M398.1,389c-19.1,57.2-53.3,84.9-87.6,73.5s-44.1-42.8-25-100s48.8-93.4,83-82c20.4,6.8,24.6,31.2,28,56
		C398.8,353.2,405.7,366,398.1,389z"/>
	<g>
		<path class="st3" d="M441.3,555.9c-16.3,0-33.2-1.1-50.2-3.3c-44.8-5.8-86-18.7-115.9-36.1c-29.8-17.4-44.9-37.2-42.4-55.9
			c2-15.2,15.3-28.2,38.6-37.5C294,414,325.2,409,359.2,409c16.3,0,33.2,1.1,50.2,3.3c44.8,5.8,86,18.7,115.9,36.1
			c29.8,17.4,44.9,37.2,42.4,55.9c-2,15.2-15.3,28.2-38.6,37.5C506.5,550.9,475.3,555.9,441.3,555.9z"/>
		<path d="M359.2,408.5v1c16.3,0,33.2,1.1,50.1,3.3c92.1,12,162.9,53,157.9,91.4c-2,15-15.2,27.8-38.3,37.1
			c-22.6,9.1-53.7,14.1-87.7,14.1c-16.3,0-33.2-1.1-50.1-3.3c-44.7-5.8-85.8-18.6-115.7-36.1c-29.6-17.3-44.6-36.9-42.2-55.4
			c2-15,15.2-27.8,38.3-37.1c22.6-9.1,53.7-14.1,87.7-14.1V408.5 M359.2,408.5c-69.6,0-122.8,20.4-126.9,52.1
			c-5.1,39,66,80.5,158.8,92.6c17.3,2.3,34.2,3.3,50.2,3.3c69.6,0,122.8-20.4,126.9-52.1c5.1-39-66-80.5-158.8-92.6
			C392.1,409.5,375.2,408.5,359.2,408.5L359.2,408.5z"/>
	</g>
	<path class="st4" d="M488.1,386c-19.1,57.2-53.3,84.9-87.6,73.5s-44.1-42.8-25-100s48.8-93.4,83-82c20.4,6.8,24.6,31.2,28,56
		C488.8,350.2,495.7,363,488.1,386z"/>
	<polygon class="st4" points="241.5,372.5 208.5,372.5 208.5,333.5 	"/>
	<polygon class="st4" points="288.5,372.5 321.5,372.5 321.5,333.5 	"/>
	<g>
		<path class="st3" d="M243.8,473.5c-25.5,0-46.3-20.7-46.3-46.3v-24.5c0-25.5,20.7-46.3,46.3-46.3h46.5c25.5,0,46.3,20.7,46.3,46.3
			v24.5c0,25.5-20.7,46.3-46.3,46.3H243.8z"/>
		<path d="M290.2,357c25.2,0,45.8,20.5,45.8,45.8v24.5c0,25.2-20.5,45.8-45.8,45.8h-46.5c-25.2,0-45.8-20.5-45.8-45.8v-24.5
			c0-25.2,20.5-45.8,45.8-45.8H290.2 M290.2,356h-46.5c-25.7,0-46.8,21-46.8,46.8v24.5c0,25.7,21,46.8,46.8,46.8h46.5
			c25.7,0,46.8-21,46.8-46.8v-24.5C337,377,316,356,290.2,356L290.2,356z"/>
	</g>
	<g>
		<circle class="st3" cx="227.5" cy="408.5" r="26"/>
		<path d="M227.5,383c14.1,0,25.5,11.4,25.5,25.5S241.6,434,227.5,434S202,422.6,202,408.5S213.4,383,227.5,383 M227.5,382
			c-14.6,0-26.5,11.9-26.5,26.5s11.9,26.5,26.5,26.5s26.5-11.9,26.5-26.5S242.1,382,227.5,382L227.5,382z"/>
	</g>
	<g>
		<circle class="st3" cx="305.5" cy="410.5" r="26"/>
		<path d="M305.5,385c14.1,0,25.5,11.4,25.5,25.5S319.6,436,305.5,436S280,424.6,280,410.5S291.4,385,305.5,385 M305.5,384
			c-14.6,0-26.5,11.9-26.5,26.5s11.9,26.5,26.5,26.5s26.5-11.9,26.5-26.5S320.1,384,305.5,384L305.5,384z"/>
	</g>
	<polygon class="st4" points="248.5,429.5 266.5,458.5 278.5,429.5 	"/>
	<circle class="st4" cx="224.5" cy="408.5" r="12"/>
	<circle class="st4" cx="305.5" cy="410.5" r="12"/>
	<circle class="st5" cx="225.5" cy="408.5" r="7"/>
	<circle class="st5" cx="305.5" cy="410.5" r="7"/>
	<g>
		<rect x="750" class="st17" width="750" height="1080"/>
	</g>
	<path class="st4" d="M1135.2,532.5c-4.2-60.1-30.4-95.5-66.4-93c-36,2.5-53.4,30.5-49.2,90.6c4.2,60.1,23.9,102.7,59.9,100.1
		c21.5-1.5,31.6-24.1,41.1-47.2C1127,567.4,1136.9,556.7,1135.2,532.5z"/>
	<g>
		<path class="st3" d="M1191.3,555.9c-16.3,0-33.2-1.1-50.2-3.3c-44.8-5.8-86-18.7-115.9-36.1c-29.8-17.4-44.9-37.2-42.4-55.9
			c2-15.2,15.3-28.2,38.6-37.5c22.6-9.1,53.8-14.1,87.8-14.1c16.3,0,33.2,1.1,50.2,3.3c92.3,12,163.4,53.3,158.3,92
			c-2,15.2-15.3,28.2-38.6,37.5C1256.5,550.9,1225.3,555.9,1191.3,555.9z"/>
		<path d="M1109.2,408.5v1c16.3,0,33.2,1.1,50.1,3.3c92.1,12,162.9,53,157.9,91.4c-2,15-15.2,27.8-38.3,37.1
			c-22.6,9.1-53.7,14.1-87.7,14.1c-16.3,0-33.2-1.1-50.1-3.3c-92.1-12-162.9-53-157.9-91.4c2-15,15.2-27.8,38.3-37.1
			c22.6-9.1,53.7-14.1,87.7-14.1V408.5 M1109.2,408.5c-69.6,0-122.8,20.4-126.9,52.1c-5.1,39,66,80.5,158.8,92.6
			c17.3,2.3,34.2,3.3,50.2,3.3c69.6,0,122.8-20.4,126.9-52.1c5.1-39-66-80.5-158.8-92.6C1142.1,409.5,1125.2,408.5,1109.2,408.5
			L1109.2,408.5z"/>
	</g>
	<path class="st4" d="M1218.2,540.5c-4.2-60.1-30.4-95.5-66.4-93c-36,2.5-53.4,30.5-49.2,90.6c4.2,60.1,23.9,102.7,59.9,100.1
		c21.5-1.5,31.6-24.1,41.1-47.2C1210,575.4,1219.9,564.7,1218.2,540.5z"/>
	<polygon class="st4" points="1018.5,376.5 985.5,376.5 985.5,337.5 	"/>
	<polygon class="st4" points="1054.5,379.5 1087.5,379.5 1087.5,340.5 	"/>
	<g>
		<path class="st3" d="M1008.8,473.5c-25.5,0-46.3-20.7-46.3-46.3v-24.5c0-25.5,20.7-46.3,46.3-46.3h46.5
			c25.5,0,46.3,20.7,46.3,46.3v24.5c0,25.5-20.7,46.3-46.3,46.3H1008.8z"/>
		<path d="M1055.2,357c25.2,0,45.8,20.5,45.8,45.8v24.5c0,25.2-20.5,45.8-45.8,45.8h-46.5c-25.2,0-45.8-20.5-45.8-45.8v-24.5
			c0-25.2,20.5-45.8,45.8-45.8H1055.2 M1055.2,356h-46.5c-25.7,0-46.8,21-46.8,46.8v24.5c0,25.7,21,46.8,46.8,46.8h46.5
			c25.7,0,46.8-21,46.8-46.8v-24.5C1102,377,1081,356,1055.2,356L1055.2,356z"/>
	</g>
	<g>
		<circle class="st3" cx="977.5" cy="408.5" r="26"/>
		<path d="M977.5,383c14.1,0,25.5,11.4,25.5,25.5S991.6,434,977.5,434S952,422.6,952,408.5S963.4,383,977.5,383 M977.5,382
			c-14.6,0-26.5,11.9-26.5,26.5s11.9,26.5,26.5,26.5s26.5-11.9,26.5-26.5S992.1,382,977.5,382L977.5,382z"/>
	</g>
	<g>
		<circle class="st3" cx="1055.5" cy="410.5" r="26"/>
		<path d="M1055.5,385c14.1,0,25.5,11.4,25.5,25.5s-11.4,25.5-25.5,25.5s-25.5-11.4-25.5-25.5S1041.4,385,1055.5,385 M1055.5,384
			c-14.6,0-26.5,11.9-26.5,26.5s11.9,26.5,26.5,26.5s26.5-11.9,26.5-26.5S1070.1,384,1055.5,384L1055.5,384z"/>
	</g>
	<polygon class="st4" points="1000.5,430.5 1018.5,459.5 1030.5,430.5 	"/>
	<circle class="st4" cx="974.5" cy="408.5" r="12"/>
	<circle class="st4" cx="1055.5" cy="410.5" r="12"/>
	<circle class="st5" cx="1054" cy="409" r="4.5"/>
	<circle class="st5" cx="973" cy="408" r="4.5"/>
	<g>
		<rect x="1500" class="st17" width="750" height="1080"/>
	</g>
	<path class="st4" d="M1897.9,393.4c-15.3,58.3-47.7,88.2-82.6,79s-46.8-39.9-31.4-98.2s42.6-96.4,77.5-87.2
		c20.8,5.5,26.6,29.6,31.6,54.1C1896.3,357.6,1904.1,369.9,1897.9,393.4z"/>
	<g>
		<path class="st3" d="M1941.5,555.5c-16.4,0-33.3-1.1-50.3-3.3c-92.3-12-163.4-53.2-158.4-91.8c2-15.1,15.3-28.1,38.5-37.4
			c22.6-9.1,53.7-14,87.7-14c16.4,0,33.3,1.1,50.3,3.3c44.8,5.8,86,18.6,115.9,36.1c29.8,17.3,44.9,37.1,42.5,55.7
			c-2,15.1-15.3,28.1-38.5,37.4C2006.6,550.5,1975.5,555.5,1941.5,555.5z"/>
		<path d="M1859.1,409.4c16.3,0,33.3,1.1,50.3,3.3c92.1,12,162.9,52.9,157.9,91.2c-1.9,14.9-15.2,27.7-38.2,37
			c-22.5,9-53.6,14-87.5,14c-16.3,0-33.3-1.1-50.3-3.3c-44.7-5.8-85.8-18.6-115.7-36c-29.6-17.2-44.6-36.8-42.2-55.2
			c1.9-14.9,15.2-27.7,38.2-37C1794.1,414.4,1825.2,409.4,1859.1,409.4L1859.1,409.4 M1859.1,408.4c-69.5,0-122.6,20.3-126.8,51.8
			c-5.1,38.9,66,80.2,158.8,92.3c17.4,2.3,34.3,3.4,50.4,3.4c69.5,0,122.6-20.3,126.8-51.8c5.1-38.9-66-80.2-158.8-92.3
			C1892.1,409.5,1875.1,408.4,1859.1,408.4L1859.1,408.4z"/>
	</g>
	<path class="st4" d="M1995.9,395.4c-15.3,58.3-47.7,88.2-82.6,79s-46.8-39.9-31.4-98.2s42.6-96.4,77.5-87.2
		c20.8,5.5,26.6,29.6,31.6,54.1C1994.3,359.6,2002.1,371.9,1995.9,395.4z"/>
	<polygon class="st4" points="1768.5,376.5 1735.5,376.5 1735.5,337.5 	"/>
	<polygon class="st4" points="1804.5,379.5 1837.5,379.5 1837.5,340.5 	"/>
	<g>
		<path class="st3" d="M1758.8,473.5c-25.5,0-46.3-20.7-46.3-46.3v-24.5c0-25.5,20.7-46.3,46.3-46.3h46.5
			c25.5,0,46.3,20.7,46.3,46.3v24.5c0,25.5-20.7,46.3-46.3,46.3H1758.8z"/>
		<path d="M1805.2,357c25.2,0,45.8,20.5,45.8,45.8v24.5c0,25.2-20.5,45.8-45.8,45.8h-46.5c-25.2,0-45.8-20.5-45.8-45.8v-24.5
			c0-25.2,20.5-45.8,45.8-45.8H1805.2 M1805.2,356h-46.5c-25.7,0-46.8,21-46.8,46.8v24.5c0,25.7,21,46.8,46.8,46.8h46.5
			c25.7,0,46.8-21,46.8-46.8v-24.5C1852,377,1831,356,1805.2,356L1805.2,356z"/>
	</g>
	<g>
		<circle class="st3" cx="1727.5" cy="408.5" r="26"/>
		<path d="M1727.5,383c14.1,0,25.5,11.4,25.5,25.5s-11.4,25.5-25.5,25.5s-25.5-11.4-25.5-25.5S1713.4,383,1727.5,383 M1727.5,382
			c-14.6,0-26.5,11.9-26.5,26.5s11.9,26.5,26.5,26.5s26.5-11.9,26.5-26.5S1742.1,382,1727.5,382L1727.5,382z"/>
	</g>
	<g>
		<circle class="st3" cx="1805.5" cy="410.5" r="26"/>
		<path d="M1805.5,385c14.1,0,25.5,11.4,25.5,25.5s-11.4,25.5-25.5,25.5s-25.5-11.4-25.5-25.5S1791.4,385,1805.5,385 M1805.5,384
			c-14.6,0-26.5,11.9-26.5,26.5s11.9,26.5,26.5,26.5s26.5-11.9,26.5-26.5S1820.1,384,1805.5,384L1805.5,384z"/>
	</g>
	<polygon class="st4" points="1750.5,430.5 1768.5,459.5 1780.5,430.5 	"/>
	<circle class="st4" cx="1724.5" cy="408.5" r="12"/>
	<circle class="st4" cx="1805.5" cy="410.5" r="12"/>
	<circle class="st5" cx="1804" cy="409" r="4.5"/>
	<circle class="st5" cx="1723" cy="408" r="4.5"/>
	<g>
		<rect x="2250" class="st17" width="750" height="1080"/>
	</g>
	<path class="st4" d="M2620.2,531.5c-4.2-60.1-30.4-95.5-66.4-93c-36,2.5-53.4,30.5-49.2,90.6s23.9,102.7,59.9,100.1
		c21.5-1.5,31.6-24.1,41.1-47.2C2612,566.4,2621.9,555.7,2620.2,531.5z"/>
	<g>
		<path class="st3" d="M2691.3,555.9c-16.3,0-33.2-1.1-50.2-3.3c-44.8-5.8-86-18.7-115.9-36.1c-29.8-17.4-44.9-37.2-42.4-55.9
			c2-15.2,15.3-28.2,38.6-37.5c22.6-9.1,53.8-14.1,87.8-14.1c16.3,0,33.2,1.1,50.2,3.3c92.3,12,163.4,53.3,158.3,92
			c-2,15.2-15.3,28.2-38.6,37.5C2756.5,550.9,2725.3,555.9,2691.3,555.9z"/>
		<path d="M2609.2,408.5v1c16.3,0,33.2,1.1,50.1,3.3c92.1,12,162.9,53,157.9,91.4c-2,15-15.2,27.8-38.3,37.1
			c-22.6,9.1-53.7,14.1-87.7,14.1c-16.3,0-33.2-1.1-50.1-3.3c-44.7-5.8-85.8-18.6-115.7-36.1c-29.6-17.3-44.6-36.9-42.2-55.4
			c2-15,15.2-27.8,38.3-37.1c22.6-9.1,53.7-14.1,87.7-14.1V408.5 M2609.2,408.5c-69.6,0-122.8,20.4-126.9,52.1
			c-5.1,39,66,80.5,158.8,92.6c17.3,2.3,34.2,3.3,50.2,3.3c69.6,0,122.8-20.4,126.9-52.1c5.1-39-66-80.5-158.8-92.6
			C2642.1,409.5,2625.2,408.5,2609.2,408.5L2609.2,408.5z"/>
	</g>
	<path class="st4" d="M2718.2,540.5c-4.2-60.1-30.4-95.5-66.4-93c-36,2.5-53.4,30.5-49.2,90.6s23.9,102.7,59.9,100.1
		c21.5-1.5,31.6-24.1,41.1-47.2C2710,575.4,2719.9,564.7,2718.2,540.5z"/>
	<polygon class="st4" points="2518.5,376.5 2485.5,376.5 2485.5,337.5 	"/>
	<polygon class="st4" points="2554.5,379.5 2587.5,379.5 2587.5,340.5 	"/>
	<g>
		<path class="st3" d="M2508.8,473.5c-25.5,0-46.3-20.7-46.3-46.3v-24.5c0-25.5,20.7-46.3,46.3-46.3h46.5
			c25.5,0,46.3,20.7,46.3,46.3v24.5c0,25.5-20.7,46.3-46.3,46.3H2508.8z"/>
		<path d="M2555.2,357c25.2,0,45.8,20.5,45.8,45.8v24.5c0,25.2-20.5,45.8-45.8,45.8h-46.5c-25.2,0-45.8-20.5-45.8-45.8v-24.5
			c0-25.2,20.5-45.8,45.8-45.8H2555.2 M2555.2,356h-46.5c-25.7,0-46.8,21-46.8,46.8v24.5c0,25.7,21,46.8,46.8,46.8h46.5
			c25.7,0,46.8-21,46.8-46.8v-24.5C2602,377,2581,356,2555.2,356L2555.2,356z"/>
	</g>
	<g>
		<circle class="st3" cx="2477.5" cy="408.5" r="26"/>
		<path d="M2477.5,383c14.1,0,25.5,11.4,25.5,25.5s-11.4,25.5-25.5,25.5s-25.5-11.4-25.5-25.5S2463.4,383,2477.5,383 M2477.5,382
			c-14.6,0-26.5,11.9-26.5,26.5s11.9,26.5,26.5,26.5s26.5-11.9,26.5-26.5S2492.1,382,2477.5,382L2477.5,382z"/>
	</g>
	<g>
		<circle class="st3" cx="2555.5" cy="410.5" r="26"/>
		<path d="M2555.5,385c14.1,0,25.5,11.4,25.5,25.5s-11.4,25.5-25.5,25.5s-25.5-11.4-25.5-25.5S2541.4,385,2555.5,385 M2555.5,384
			c-14.6,0-26.5,11.9-26.5,26.5s11.9,26.5,26.5,26.5s26.5-11.9,26.5-26.5S2570.1,384,2555.5,384L2555.5,384z"/>
	</g>
	<polygon class="st4" points="2500.5,430.5 2518.5,459.5 2530.5,430.5 	"/>
	<circle class="st4" cx="2474.5" cy="408.5" r="12"/>
	<circle class="st4" cx="2555.5" cy="410.5" r="12"/>
	<circle class="st5" cx="2554" cy="409" r="4.5"/>
	<circle class="st5" cx="2473" cy="408" r="4.5"/>
</g>
<g id="baggrund">
</g>
<g id="Layer_1" class="st0">
</g>
<g id="_x31__contact" class="st0">
</g>
<g id="_x32__down" class="st0">
</g>
<g id="_x33__pass_pos" class="st0">
</g>
<g id="_x34__up" class="st0">
</g>
<g id="_x31__hands_up" class="st0">
</g>
<g id="_x32__hands_up" class="st0">
</g>
<g id="hands_up" class="st0">
</g>
<g id="pants_down" class="st0">
</g>
<g id="_x32__pants_down" class="st0">
</g>
<g id="_x33__pants_down" class="st0">
</g>
<g id="_x31__penis_off" class="st0">
</g>
<g id="_x32__penis_off" class="st0">
</g>
<g id="_x33__penis_off" class="st0">
</g>
<g id="_x34__penis_off" class="st0">
</g>
<g id="_x31__flying_owl" class="st0">
</g>
<g id="_x32__flying_owl" class="st0">
</g>
<g id="_x33__flying_owl">
</g>
<g id="_x34__flying_owl" class="st0">
</g>
<g id="_x31__owl_takes_penis" class="st0">
</g>
<g id="_x32__owl_takes_penis" class="st0">
</g>
<g id="_x33__owl_takes_penis" class="st0">
</g>
<g id="_x34__owl_takes_penis" class="st0">
</g>
<g id="_x35__owl_takes_penis" class="st0">
</g>
<g id="_x36__owl_takes_penis" class="st0">
</g>
<g id="_x37__owl_takes_penis" class="st0">
</g>
<g id="_x38__owl_takes_penis" class="st0">
</g>
</svg>
